<?xml version="1.0" encoding="UTF-8"?>
<svg id="Layer_1" xmlns="http://www.w3.org/2000/svg" version="1.1" viewBox="0 0 512 512">
  <!-- Generator: Adobe Illustrator 29.7.1, SVG Export Plug-In . SVG Version: 2.1.1 Build 8)  -->
  <defs>
    <style>
      .st0 {
        fill: #ecca4e;
      }

      .st1 {
        fill: #001c3f;
      }

      .st2 {
        fill: #4d5759;
      }

      .st3 {
        fill: #0c3629;
      }

      .st4 {
        fill: #29390b;
      }

      .st5 {
        fill: #d7c784;
      }

      .st6 {
        fill: #586873;
      }

      .st7 {
        fill: #f1e185;
      }

      .st8 {
        fill: #040e0f;
      }

      .st9 {
        fill: #04373e;
      }

      .st10 {
        fill: #838275;
      }

      .st11 {
        fill: #031a29;
      }

      .st12 {
        fill: #3c4f68;
      }

      .st13 {
        fill: #a6a687;
      }

      .st14 {
        fill: #fed231;
      }

      .st15 {
        fill: #aa9954;
      }
    </style>
  </defs>
  <path class="st1" d="M0,0h512v512H0V0Z"/>
  <g>
    <path class="st14" d="M136.79,240.13c-1.57.1-3.46-.04-4.39-.06l4.39.06Z"/>
    <path class="st14" d="M203.87,261.14c-.14-.29-.29-.56-.45-.84-.12-.19-.25-.39-.37-.58s-.26-.39-.4-.58c-.13-.19-.28-.38-.43-.56-.3-.37-.61-.73-.95-1.08-.39-.41-.8-.79-1.24-1.15-3.01-2.52-6.93-3.69-10.83-3.23-2,.23-3.8.79-5.38,1.64-.39.2-.77.43-1.14.68-.17.12-.36.25-.53.38-.17.12-.34.26-.5.39l-.03.03c-.16.13-.32.27-.47.41-.33.29-.62.59-.92.91-.12.12-.24.26-.35.39-.15.17-.3.36-.43.54-.02.02-.03.04-.05.06-.15.2-.31.42-.45.65-.1.15-.2.32-.31.48-.09.14-.17.3-.27.44-.29.53-.55,1.09-.79,1.65-.07.16-.13.33-.19.5-.25.67-.45,1.36-.59,2.07-.05.19-.09.39-.12.59-.07.4-.13.8-.18,1.21-.03.29-.05.58-.06.87-.02.32-.03.65-.03.96h0c0,.75.04,1.48.13,2.24,0,.01.01.01.01.01h0v.03s.01-.01.01-.02c.29,1.1.6,2.11.99,3.05.12.32.27.62.41.92.1.19.19.39.3.58.11.18.22.38.33.56.14.24.3.46.45.69.79,1.13,1.76,2.13,2.99,3.03.1.08.22.16.33.24.4.29.81.55,1.26.81.01.01.01.02.02.02,3.35,1.9,7.31,2.42,11.04,1.42,3.87-1.05,7.15-3.65,9.06-7.17.45-.83.89-1.99,1.16-2.89v-.03c.85-3.66.53-7.24-1.01-10.33ZM185.21,265.85c.61-1.99,2.24-3.48,4.27-3.92h.01c3.06-.68,6.09,1.24,6.81,4.3.72,3.05-1.16,6.11-4.2,6.88-2.01.5-4.14-.11-5.57-1.62-1.42-1.51-1.94-3.67-1.32-5.64ZM348.43,162.96c-.81-4.28-4.93-7.11-9.21-6.32-4.31.79-7.16,4.94-6.35,9.25.82,4.31,4.98,7.14,9.28,6.31,4.28-.83,7.09-4.96,6.28-9.24ZM345.83,166.71h.02c-.92,2.18-3.12,3.56-5.51,3.42-2.38-.14-4.4-1.76-5.07-4.04-.66-2.28.19-4.74,2.13-6.12,1.94-1.38,4.54-1.39,6.48-.02,2.16,1.52,2.97,4.33,1.95,6.77ZM348.43,162.96c-.81-4.28-4.93-7.11-9.21-6.32-4.31.79-7.16,4.94-6.35,9.25.82,4.31,4.98,7.14,9.28,6.31,4.28-.83,7.09-4.96,6.28-9.24ZM345.83,166.71h.02c-.92,2.18-3.12,3.56-5.51,3.42-2.38-.14-4.4-1.76-5.07-4.04-.66-2.28.19-4.74,2.13-6.12,1.94-1.38,4.54-1.39,6.48-.02,2.16,1.52,2.97,4.33,1.95,6.77ZM348.43,162.96c-.81-4.28-4.93-7.11-9.21-6.32-4.31.79-7.16,4.94-6.35,9.25.82,4.31,4.98,7.14,9.28,6.31,4.28-.83,7.09-4.96,6.28-9.24ZM345.83,166.71h.02c-.92,2.18-3.12,3.56-5.51,3.42-2.38-.14-4.4-1.76-5.07-4.04-.66-2.28.19-4.74,2.13-6.12,1.94-1.38,4.54-1.39,6.48-.02,2.16,1.52,2.97,4.33,1.95,6.77ZM348.43,162.96c-.81-4.28-4.93-7.11-9.21-6.32-4.31.79-7.16,4.94-6.35,9.25.82,4.31,4.98,7.14,9.28,6.31,4.28-.83,7.09-4.96,6.28-9.24ZM345.83,166.71h.02c-.92,2.18-3.12,3.56-5.51,3.42-2.38-.14-4.4-1.76-5.07-4.04-.66-2.28.19-4.74,2.13-6.12,1.94-1.38,4.54-1.39,6.48-.02,2.16,1.52,2.97,4.33,1.95,6.77ZM388.52,214.46c.22.97.55,1.67,1.48,2.11,2.32,1.1,3.42-1.19,4.04-2.97.95-2.71,1.99-10.06.3-12.52-4.67-6.8-17.31-4.26-24.4-6.79-2.13-.76-4.24-2.09-6.29-2.94-3.6-1.49-7.4-2.83-11.15-3.84-1.53-.53-4.2-.8-5.82-.9.35-1.22,2.02-3.57,2.71-4.76,4.43-7.53,10.05-14.4,6.15-23.48-1.73-3.97-4.98-7.1-9.01-8.67-13.76-5.3-27.41,9.29-20,22.58,2.57,4.62,5.09,10.05,8.28,14.26h0c-4.28.67-7.88,1.76-11.98,2.53-1.78.34-6.96.23-9.06.23l-14.57-.02c-1.48-4.07-4.37-5.91-8.63-6.1-4.64-.2-9.4-.1-14.04-.1h-50.04c-4.75,0-10.42-.15-15.09.19-2.58.22-5.11.82-7.51,1.81-2.75,1.11-5.02,2.55-7.5,4.16-7.42.05-14.85.05-22.27.01-4.61,0-10.19-.2-14.65.51-1.98.32-5.32,1.67-7.48,2.26-.32.39-.71,1-1.11,1.2-.91.84-3.97,4.14-4.35,4.39-.36.63-.55,1.13-1.06,1.6.23.93-1.06,3.61-1.63,4.39-.26.72-.3.7-.38,1.42-.41,2.3-.19,4.29-2.74,4.5.44.76.57,1.18,1.22,1.74-.31,1.26-.63,2.54-.88,3.81-.09.38-.35,1.54-.46,1.85-.19,1.32-.38,2.65-.55,3.97l-4.66.14s.07.01.1.02h.01c.06.01.11.02.17.03.65.1,1.13.17,1.65.32t.01,0c.11.04.24.08.37.12.02.01.05.02.07.03.06.02.12.05.19.07.04.02.09.04.13.06.07.03.15.06.23.09.07.03.14.06.23.1h.01s.22.45.22.45h.01c-.51.18-.69.24-1.22.34.56.05,1.39,0,1.69.33.4.43.58,1.01.52,1.6-.07.63-.3,1.61-.77,2.05l-.27.39c.18.69.25,1.06.6,1.69-.02.95.01,3.22-.26,4-.03.53-.07,1.12-.04,1.64.29,1.03.34,3.39,0,4.34l.1.74c-.14.18-.41.33-.76.43-.1.03-.2.06-.32.08-.11.03-.24.05-.35.07h-.03c-.08.02-.17.03-.27.04-.15.02-.32.04-.49.05-.02,0-.04,0-.06.01l2.34.03h.04v4.4l-.1,1.39c.12,1.58.08,2.65.02,4.23-.2.74-.16.73-.06,1.5.2,1.61.12,3.08.07,4.7h-.03c-.11.01-.24.02-.37.02-.15,0-.32.01-.48.02-.26.02-.52.04-.79.06-.71.07-1.42.17-1.85.4.09.04.19.07.3.09.07.02.13.04.2.05.22.05.45.09.7.11.17.02.36.03.54.04.35.03.7.03,1.03.05.23.01.44.01.63.02h.03c-.02,1.04-.18,4.95.07,5.86h0s.01.07.02.09l.12,3.49c1.33,2.21,4.33,5.07,6.58,5.24,6.75.51,22.23,1.4,28.51.67.06-.98-.04-1.52-.16-2.5t-.01-.02h-.01c-2.54-13.94,13.9-24.65,25.56-16.15,6.58,4.79,7.86,10.59,6.59,18.29-.65.17-.63.23-1.27.06v.02c.65.16.63.11,1.28-.06l.25.36c2.25.33,5.39-.05,7.19.27.02,0,.03,0,.04-.01h.01c4.63-.49-.75-11.57,14.88-10.81.08-.03.17-.05.25-.07.08-.03.15-.05.24-.07.31-.09.56-.16.8-.27.07-.03.14-.06.2-.1.01,0,.02,0,.03-.01.06-.03.12-.07.17-.1.06-.04.12-.08.17-.12.16-.12.33-.29.48-.5t.01-.02c.46,1.24,1.28,1.3,2.51,1.28.12,0,.26-.01.39-.01.55-.01,1.06,0,1.56.03.18.01.36.02.52.04.34.03.67.08.97.14.06.01.11.02.17.03.37.07.71.16,1.03.28.25.08.49.17.72.27.2.08.4.18.58.29.11.05.23.11.33.18.25.15.48.32.71.49.13.09.26.19.37.32.12.09.24.2.34.33.17.19.34.38.48.57.14.18.28.37.41.56.1.13.18.28.27.42.1.19.22.39.32.58.01.01.01.02.02.03.13.24.26.48.35.74.07.16.14.32.22.48.09.23.18.45.28.69.15.41.3.83.45,1.27.11.33.21.66.33.99.08.25.16.49.25.75.26.76.51,1.55.8,2.34.01.02.01.04.02.06-.06-2.24-.2-4.77.43-6.91.19-.67.47-1.28.85-1.84.07-.11.15-.23.24-.33.09-.12.18-.23.29-.34.26-.3.56-.56.9-.8.34-.25.73-.46,1.16-.65h.02s.03-.02.04-.02c.01-.01.02-.02.04-.02.19-.08.39-.15.59-.22.02-.02.04-.02.06-.02.06-.03.13-.05.2-.07.3-.1.59-.18.9-.26.14-.03.3-.07.45-.1.14-.04.31-.07.46-.09.18-.04.37-.07.56-.09.58-.1,1.19-.17,1.81-.23.14-.01.28-.02.41-.03.28-.02.55-.04.84-.05.29-.02.57-.03.87-.03.24-.01.48-.02.73-.02,3.18-.05,6.45.17,9.02.13.71-.01,1.39,0,2.06.03.68.01,1.33.06,1.97.13.06,0,.13.01.2.02.29.02.56.06.84.1.06,0,.12.01.18.03.17.02.35.05.51.08.25.03.49.07.74.12.34.06.68.12,1,.22.4.09.79.19,1.18.31.35.1.71.23,1.05.35,1.05.36,2.07.81,3.05,1.35.33.18.66.38.98.57.65.41,1.29.85,1.93,1.33.62.48,1.25,1.01,1.86,1.59h.01c1.13-1.17,2.29-2.15,3.52-2.98.2-.14.42-.29.63-.4.12-.09.26-.16.38-.24.26-.15.51-.3.78-.42.15-.08.3-.15.44-.23.31-.15.62-.3.94-.43.05-.03.1-.05.14-.06.17-.07.35-.14.52-.2.09-.04.19-.08.3-.11.09-.04.18-.07.29-.1.23-.09.46-.16.69-.24.35-.11.7-.2,1.05-.3.28-.08.56-.14.85-.2.06-.02.12-.03.19-.04.12-.03.26-.06.39-.08.67-.14,1.35-.26,2.05-.34.23-.03.45-.05.68-.08.29-.03.57-.06.86-.09.81-.06,1.63-.1,2.46-.13.45-.01.92-.02,1.38-.02.22,0,.27.01.33-.01.04-.01.07-.03.15-.07.02-.02.05-.03.08-.05,2.19-4.53,5.24-7.66,10.06-9.37,4.09-1.47,8.59-1.24,12.49.66,4.04,1.94,7.12,5.45,8.51,9.71.91,2.74,1.05,5.11.65,7.96h.02s-.48,2.31-.48,2.31h0s.01.01.01.01c3.45.47,7.4.11,10.69-.91,1.47-.46,3.55-.78,5.09-.78,6.91-.03,13.83-.06,20.75.03,1.78-.01,3.24,1.23,4.98,1.5,3.41.51,6.93.26,10.38.29,2.7.02,5.17-.59,6.09-3.51,1.29-4.11-.05-7.01-4.21-8.38-.01-3.34.1-6.41-.25-9.74.25-3.08-.89-8.05-1.54-11.15-2.62-12.69-6.66-23.4-11.43-35.35,3.66-.16,9.25-.91,13.05-1.27.07,3.51.02,7.68.59,11.1ZM351.42,188.86l-.18.3c-1.59.2-5.55.87-6.75-.15,1.86-.39,4.99-.27,6.93-.14ZM328.27,170.68c-4.65-9.47,1.67-18.86,11.87-19.72,2.99-.09,5.84.61,8.34,2.31,3.19,2.16,5.37,5.53,6.01,9.34,1.22,7.25-8.4,20.84-12.48,26.67-.56.01-2.33.07-2.67-.37-4.07-5.37-8.1-12.2-11.06-18.23ZM336.87,189.39c-1.66.24-5.79.26-7.27-.52,1.71-.06,6.15-.6,7.27.52ZM316.69,211.73c.78-1.39,1.41-1.56,2.84-1.94h0c3.64-.04,12.6-.5,15.94.5,2.99.89,2.27,9.48,2.27,12.14s-.61,5.24-3.78,5.95c-4.37.07-9.36.26-13.72,0-2.08-.12-2.86-.87-4-2.43-.46-2.64-.89-11.85.45-14.23ZM282.96,211.99c.52-1.15,1.32-1.69,2.45-2.15,3.83-.23,18.76-.69,21.57.63.95.44,1.42,1.17,1.74,2.14.72,2.21.61,12.1-.41,13.91-.59,1.03-1.44,1.48-2.55,1.8-3.68.25-17.85.7-20.74-.41-.92-.35-1.68-.87-2.08-1.79-.97-2.27-.98-11.94.02-14.13ZM251.6,211.34c2.26-2.16,21.58.04,22.33-.54,2.25,2.34,1.35,7.62,1.5,10.76.11,2.44-.28,4.74-2.08,6.46-2.76.55-19.35,1.13-22.45-.43-.3-.14-.85-.82-1.08-1.11.39-3.85-.83-12.67,1.77-15.14ZM216.82,211.85c.68-1.13,1.71-1.48,2.92-1.8h.01c4.26-.04,17.74-.89,20.74.83.86.49,1.29,1.17,1.56,2.11.45,1.64.44,9.47.19,11.27-.1.79-.33,1.59-.76,2.25-.75,1.18-1.72,1.54-3.02,1.86-4.01.09-17.78.83-20.63-.78-.85-.48-1.17-1.23-1.41-2.13-.62-2.31-.82-11.59.41-13.62ZM182.9,212.04c.54-1.36,1.4-1.77,2.67-2.25h.01c6.47-.07,13.43-.42,19.79.29,2.88.44,3.61,3.62,3.31,5.99-.57,4.35,1.79,10.31-3.25,12.24-5.41.4-14.34.17-19.9-.05-1.32-.05-2.14-1.28-2.89-2.29-.47-3.01-.92-10.98.25-13.92ZM169.45,209.81c5.99-.47,6.65,1.55,6.43,7.2-.13,3.68.96,6.15-2.8,7.97-6.31.62-6.56-1.55-6.57-7.4,0-3.39-.56-6.41,2.94-7.76ZM345.15,254.79c-3.02,0-6.09.03-9.12,0-6.59-12.43-23.52-14.17-32.58-3.26-.87,1.04-1.59,2.13-2.33,3.26h-90.77c-6.87-10.97-20.65-15.07-31.89-8.04-3.53,2.1-5.67,4.65-7.84,8.04h-27.47c.1-5.51-.34-16.78.26-21.73l34.37-.04h140.85c5.25,0,11.02-.13,16.24.2,2.42.15,5.27,1.75,7.02,3.43,4.28,4.15,3.3,12.28,3.28,18.14ZM346.78,231.51h-.01c-2.15-1.93-1.32-16.64-.84-19.92.31-2.14,5.78-2.15,7.86-1.11.77,2.52.91,18.17.08,20.2-1.66,1.38-5.1,1.34-7.1.82ZM357.44,248.1c-2.04.05-5.58.22-7.51-.3l-.22-.38c.5-.42.53-.36,1.2-.43h0c1.28-.05,6.75-.47,7.43.67-.42.5-.15.32-.91.44ZM349.74,244.38l-.06-.78c1.59-.04,7.4-.43,8.59.29l.14.79c-1.73.07-7.54.54-8.67-.3ZM383.24,251.68h.34c1.19-.01,2.63-.23,3.37.5-.02,2.83-.06,5.65-.12,8.48l-3.68.02c-.02-3,0-6,.09-9ZM376.56,232.7c-.81.74-.73.53-1.96.81-3.22.06-7.35.28-10.42-.36-.66-3.96-.55-17.31-.02-21.91.07-.6,1.43-1.17,2.07-1.48h0c1.27.04,3.06.36,3.58,1.64,1.3,3.22,7.43,18.92,6.75,21.31ZM342.15,172.2c4.28-.83,7.09-4.96,6.28-9.24-.81-4.28-4.93-7.11-9.21-6.32-4.31.79-7.16,4.94-6.35,9.25.82,4.31,4.98,7.14,9.28,6.31ZM335.27,166.09c-.66-2.28.19-4.74,2.13-6.12,1.94-1.38,4.54-1.39,6.48-.02,2.16,1.52,2.97,4.33,1.95,6.77h.02c-.92,2.18-3.12,3.56-5.51,3.42-2.38-.14-4.4-1.76-5.07-4.04ZM348.43,162.96c-.81-4.28-4.93-7.11-9.21-6.32-4.31.79-7.16,4.94-6.35,9.25.82,4.31,4.98,7.14,9.28,6.31,4.28-.83,7.09-4.96,6.28-9.24ZM345.83,166.71h.02c-.92,2.18-3.12,3.56-5.51,3.42-2.38-.14-4.4-1.76-5.07-4.04-.66-2.28.19-4.74,2.13-6.12,1.94-1.38,4.54-1.39,6.48-.02,2.16,1.52,2.97,4.33,1.95,6.77ZM348.43,162.96c-.81-4.28-4.93-7.11-9.21-6.32-4.31.79-7.16,4.94-6.35,9.25.82,4.31,4.98,7.14,9.28,6.31,4.28-.83,7.09-4.96,6.28-9.24ZM345.83,166.71h.02c-.92,2.18-3.12,3.56-5.51,3.42-2.38-.14-4.4-1.76-5.07-4.04-.66-2.28.19-4.74,2.13-6.12,1.94-1.38,4.54-1.39,6.48-.02,2.16,1.52,2.97,4.33,1.95,6.77ZM348.43,162.96c-.81-4.28-4.93-7.11-9.21-6.32-4.31.79-7.16,4.94-6.35,9.25.82,4.31,4.98,7.14,9.28,6.31,4.28-.83,7.09-4.96,6.28-9.24ZM345.83,166.71h.02c-.92,2.18-3.12,3.56-5.51,3.42-2.38-.14-4.4-1.76-5.07-4.04-.66-2.28.19-4.74,2.13-6.12,1.94-1.38,4.54-1.39,6.48-.02,2.16,1.52,2.97,4.33,1.95,6.77ZM348.43,162.96c-.81-4.28-4.93-7.11-9.21-6.32-4.31.79-7.16,4.94-6.35,9.25.82,4.31,4.98,7.14,9.28,6.31,4.28-.83,7.09-4.96,6.28-9.24ZM345.83,166.71h.02c-.92,2.18-3.12,3.56-5.51,3.42-2.38-.14-4.4-1.76-5.07-4.04-.66-2.28.19-4.74,2.13-6.12,1.94-1.38,4.54-1.39,6.48-.02,2.16,1.52,2.97,4.33,1.95,6.77ZM333.18,270.21s-.01-.01-.02-.01c.76-5.92-1.13-11.71-6.28-15.08-.29-.19-.58-.37-.89-.54t-.02-.01c-.56-.31-1.15-.58-1.74-.81-.71-.28-1.42-.5-2.16-.66-1.57-.35-3.18-.43-4.79-.26-.2.03-.42.06-.62.09-.26.04-.52.09-.78.14-.66.14-1.27.32-1.84.53-.88.31-1.67.69-2.41,1.12-.25.14-.49.3-.72.45-.86.59-1.63,1.28-2.33,2.04-1.21,1.27-2.25,2.78-3.33,4.47-.36,0-.61,0-.82-.01.01.01.02.01.04.01.22.01.46.01.8.01.16.03.34.06.51.09.16.04.33.07.5.1h0s.01.01.02.01c.36.08.73.17,1.11.27.18.04.37.09.56.13h0s.01.02.02.01c.39.1.78.2,1.17.33h0s.01.01.02.01c.39.12.78.25,1.17.38h.02c.19.06.38.12.56.2.1.04.19.07.29.1.05.01.1.03.14.05.04.01.08.03.13.06.19.07.38.14.55.22.06.03.12.05.17.07.22.08.41.17.6.28.09.05.17.09.26.12.16.08.31.16.46.25.03.01.05.02.08.04.12.06.24.13.35.2,3.06-5.01,9.42-3.07,10.33,1.96.28,1.58-.13,3.19-1.11,4.46-.33.43-.92,1.01-1.34,1.38,0,.01.01.01.01.01-.04.14-.05.33-.05.52-.01.05,0,.1.01.15,0,.01-.01.01-.01.02,0,0,.01.01.01.02v.05s0,.04.01.07c0,.04.01.08.03.13.03.19.08.41.13.61,0,.05.01.1.03.15,0,.02.01.03.01.05s.01.05.02.08c.01.02.02.05.03.08.02.06.04.13.06.2.04.15.09.31.13.45h0c.1.3.18.55.26.8,0,.02.01.04.02.05,0,.03.01.06.02.08.03.09.05.18.07.27.41,1.75.57,3.3.72,5.08h0c1.64-.7,3.02-1.46,4.22-2.39.17-.13.34-.27.5-.4.69-.58,1.32-1.22,1.89-1.94.11-.13.22-.27.32-.4.4-.51.77-1.08,1.13-1.69.13-.23.27-.47.4-.72.05-.09.1-.19.15-.3.08-.15.16-.3.25-.45h-.01c.33-.77.69-2.03.96-2.85Z"/>
    <path class="st14" d="M203.87,261.14c-.14-.29-.29-.56-.45-.84-.12-.19-.25-.39-.37-.58s-.26-.39-.4-.58c-.13-.19-.28-.38-.43-.56-.3-.37-.61-.73-.95-1.08-.39-.41-.8-.79-1.24-1.15-3.01-2.52-6.93-3.69-10.83-3.23-2,.23-3.8.79-5.38,1.64-.39.2-.77.43-1.14.68-.17.12-.36.25-.53.38-.17.12-.34.26-.5.39l-.03.03c-.16.13-.32.27-.47.41-.33.29-.62.59-.92.91-.12.12-.24.26-.35.39-.15.17-.3.36-.43.54-.02.02-.03.04-.05.06-.15.2-.31.42-.45.65-.1.15-.2.32-.31.48-.09.14-.17.3-.27.44-.29.53-.55,1.09-.79,1.65-.07.16-.13.33-.19.5-.25.67-.45,1.36-.59,2.07-.05.19-.09.39-.12.59-.07.4-.13.8-.18,1.21-.03.29-.05.58-.06.87-.02.32-.03.65-.03.96h0c0,.75.04,1.48.13,2.24,0,.01.01.01.01.01h0v.03h0c.29,1.1.6,2.1,1,3.03.12.32.27.62.41.92.1.19.19.39.3.58.11.18.22.38.33.56.14.24.3.46.45.69.79,1.13,1.76,2.13,2.99,3.03.1.08.22.16.33.24.4.29.81.55,1.26.81,3.35,1.9,7.31,2.42,11.04,1.42,3.87-1.05,7.15-3.65,9.06-7.17.45-.83.89-2,1.16-2.9.85-3.66.53-7.23-.99-10.33ZM192.1,273.11c-2.01.5-4.14-.11-5.57-1.62-1.42-1.51-1.94-3.67-1.32-5.64.61-1.99,2.24-3.48,4.27-3.92h.01c3.06-.68,6.09,1.24,6.81,4.3.72,3.05-1.16,6.11-4.2,6.88Z"/>
    <path class="st14" d="M319.05,268.75c.11.13.23.29.34.45-.06-.08-.12-.15-.18-.23h0c-.05-.09-.11-.15-.15-.23Z"/>
    <path class="st14" d="M333.16,270.2s.01.01.02.01c-.28.82-.63,2.08-.96,2.84h0s-.01.01-.01.01c-.07.15-.14.31-.23.45-.05.1-.1.2-.15.3-.13.25-.27.49-.4.72-.36.61-.73,1.18-1.13,1.69-.1.13-.2.27-.32.4-.57.72-1.21,1.35-1.89,1.94-.16.13-.33.27-.5.4-1.2.9-2.59,1.67-4.22,2.39h-.01c-.14-1.78-.31-3.34-.72-5.09-.02-.08-.04-.16-.06-.26-.01-.02-.02-.05-.02-.08-.01-.01-.02-.03-.02-.05,0-.01-.01-.02-.02-.04-.01-.03-.02-.07-.03-.1-.06-.2-.13-.42-.2-.65h0c-.04-.15-.09-.31-.13-.46-.02-.07-.04-.14-.06-.2-.01-.03-.02-.06-.03-.08-.01-.03-.02-.06-.02-.08s-.01-.03-.01-.05c-.02-.05-.03-.1-.03-.15-.05-.2-.1-.42-.13-.61-.02-.05-.03-.09-.03-.13-.01-.03-.01-.05-.01-.07v-.05s-.01-.02-.01-.02c0-.01.01-.01.01-.02-.01-.05-.02-.1-.01-.15-.01-.06-.01-.12-.01-.18-.01-.06,0-.12.01-.17.01-.06.02-.11.04-.17.42-.37,1.01-.95,1.34-1.38.97-1.27,1.38-2.89,1.11-4.46-.91-5.03-7.27-6.96-10.33-1.96-.11-.07-.23-.14-.35-.2-.03-.02-.05-.03-.08-.04-.15-.08-.3-.16-.46-.25-.08-.03-.16-.07-.26-.12-.19-.1-.39-.19-.6-.28-.05-.02-.11-.04-.17-.07-.22-.1-.45-.19-.69-.28-.04-.02-.09-.04-.14-.05-.09-.03-.18-.06-.29-.1-.18-.08-.37-.14-.56-.2-.4-.14-.79-.27-1.19-.38,0,0-.01-.01-.02-.01-.39-.12-.78-.23-1.17-.33,0,0-.01-.01-.02-.01-.57-.15-1.14-.29-1.67-.4,0,0-.01-.01-.02-.01-.35-.08-.69-.14-1-.2h-.01c1.07-1.7,2.11-3.19,3.31-4.47.71-.76,1.47-1.44,2.33-2.04.23-.15.47-.31.72-.45.74-.43,1.53-.81,2.41-1.12.57-.22,1.19-.39,1.84-.53.26-.05.52-.1.78-.14.2-.03.42-.06.62-.09,1.61-.17,3.23-.09,4.79.26.74.15,1.45.38,2.16.66.59.23,1.18.5,1.74.81t.02.01c.31.17.6.35.89.54,5.15,3.37,7.03,9.16,6.28,15.08Z"/>
    <path class="st1" d="M321.52,272.12l-.18-.18s-.06-.08-.09-.12c-.09-.12-.19-.25-.29-.37-.03-.05-.07-.1-.11-.15-.07-.08-.13-.16-.18-.26-.5-.7-1.02-1.48-1.45-2.06h0c-.12-.16-.24-.3-.34-.41-1.32-1.47-3.26-2.84-4.91-3.93,0,0,0-.01.01-.01,1.65,1.1,3.58,2.46,4.91,3.93.05.06.11.12.17.19.11.13.23.29.34.45.42.57.9,1.3,1.35,1.94.2.29.41.55.59.78.06.07.12.14.18.2Z"/>
    <path class="st1" d="M321.85,272.43h-.01c-.1-.06-.22-.17-.33-.3.12.11.24.22.34.3Z"/>
    <path class="st8" d="M176.39,267.98c0,.74.05,1.47.14,2.23h0s-.01.01-.01,0c-.09-.76-.13-1.5-.13-2.23Z"/>
    <path class="st8" d="M388.08,260.87l-1.25-.2c.06-2.83.1-5.65.12-8.48h.01s0,0,0,0c.33-.75.18-.47.87-1.05.35,3.33.24,6.4.25,9.74Z"/>
    <path class="st7" d="M388.08,260.87l-1.25-.2c.06-2.83.1-5.65.12-8.48h.01c.33-.75.18-.47.87-1.05.35,3.33.24,6.4.25,9.74Z"/>
    <path class="st3" d="M228.77,262.05c.33-1.56.84-3.43,1.23-5,.32,1.46.61,2.33,1.11,3.73-.62.88-1.23.92-2.33,1.27Z"/>
    <path class="st6" d="M139.09,257.24c-1.06-.04-2.49,0-3.44-.37.81-.41,2.54-.43,3.52-.5.04,1.42.15,5.51.01,6.82-.29-.7-.11-4.86-.09-5.95h0Z"/>
    <path class="st1" d="M348.43,162.96c-.81-4.28-4.93-7.11-9.21-6.32-4.31.79-7.16,4.94-6.35,9.25.82,4.31,4.98,7.14,9.28,6.31,4.28-.83,7.09-4.96,6.28-9.24ZM345.83,166.71h.02c-.92,2.18-3.12,3.56-5.51,3.42-2.38-.14-4.4-1.76-5.07-4.04-.66-2.28.19-4.74,2.13-6.12,1.94-1.38,4.54-1.39,6.48-.02,2.16,1.52,2.97,4.33,1.95,6.77Z"/>
    <path class="st14" d="M348.43,162.96c-.81-4.28-4.93-7.11-9.21-6.32-4.31.79-7.16,4.94-6.35,9.25.82,4.31,4.98,7.14,9.28,6.31,4.28-.83,7.09-4.96,6.28-9.24ZM345.83,166.71h.02c-.92,2.18-3.12,3.56-5.51,3.42-2.38-.14-4.4-1.76-5.07-4.04-.66-2.28.19-4.74,2.13-6.12,1.94-1.38,4.54-1.39,6.48-.02,2.16,1.52,2.97,4.33,1.95,6.77Z"/>
    <path class="st9" d="M422.92,288.03c-3.53.35-4.82,2.43-6.91,4.99-3.4,4.19-6.04,8.61-9,13.08-.98,1.5-2.63,4.21-3.66,5.47-4.57-5.23-6.98-5.82-13.48-7.49,1.13-.74,2.89-1.98,4.22-2.09,5.84-.49,16.07,2.92,17.89-5.43,1.06-4.88-2.22-7.3-6.59-8-7.87-1.26-17.18,1.76-23.91,5.65-3.53-15.76-21.52,2.15-26.74,7.47-1.45,1.47-4.6,5.87-6.59,5.75-.72-2.09,3.7-5.65,2.46-10.48-1.81-7.03-5.77-7.63-12.01-8.65-6.74-1.1-9.72,1.22-15.55,2.29.04-1.4.14-8.21.31-9.26-.14-1.78-.31-3.34-.72-5.09-.02-.12-.07-.28-.11-.44-.01-.03-.02-.07-.03-.1-.06-.2-.13-.42-.2-.65h0c-.08-.26-.16-.5-.23-.75-.01-.03-.02-.06-.02-.08s-.01-.03-.01-.05c-.09-.31-.16-.62-.19-.9-.01-.03-.01-.05-.01-.07-.01-.02-.01-.04-.01-.07-.02-.12-.03-.25-.01-.36-.01-.06,0-.12.01-.17,0-.06.01-.11.03-.16-.1-.07-.22-.18-.33-.31h0s-.18-.19-.18-.19v-.02s-.06-.07-.09-.1c-.09-.12-.19-.25-.29-.37-.03-.05-.07-.1-.11-.15s-.07-.1-.1-.15c-.03-.03-.06-.06-.08-.1-.5-.7-1.02-1.48-1.45-2.06h0c-.12-.16-.24-.3-.34-.41-1.32-1.47-3.26-2.84-4.91-3.93-.13-.08-.28-.17-.42-.26-.15-.08-.3-.16-.46-.25-.08-.03-.16-.07-.26-.12-.19-.08-.39-.17-.6-.28-.05-.02-.11-.04-.17-.07-.17-.07-.36-.14-.55-.22-.09-.04-.18-.07-.28-.11-.09-.03-.18-.06-.29-.1-.19-.07-.39-.14-.58-.2-.39-.13-.78-.26-1.17-.38h-.02c-.39-.11-.79-.23-1.17-.34-.01.01-.02.01-.02,0-.19-.04-.38-.09-.56-.14-.38-.09-.75-.18-1.11-.27h-.02c-.17-.04-.34-.07-.5-.11-.17-.03-.35-.06-.51-.09-.34,0-.58,0-.8-.01-.04,0-.08,0-.11-.01-.26-.01-.46-.05-.75-.14-.06-.01-.13-.04-.2-.06-.1-.03-.22-.07-.34-.11-.03.02-.06.03-.08.05-.08.03-.11.06-.15.07-.06.02-.11.01-.33.01-.46,0-.93.01-1.38.02-.83.03-1.65.07-2.46.13-.29.03-.57.06-.86.09-.23.03-.45.05-.68.08-.7.08-1.38.19-2.05.34-.13.02-.27.05-.39.08-.07.01-.13.02-.19.04-.29.06-.57.12-.85.2-.36.09-.71.19-1.05.3-.23.07-.46.14-.69.24-.1.03-.19.06-.29.1-.1.03-.2.07-.3.11-.17.06-.35.13-.52.2-.04.01-.09.03-.14.06-.32.13-.63.28-.94.43-.14.07-.29.14-.44.23-.27.12-.52.27-.78.42-.12.07-.26.14-.38.24-.22.11-.43.26-.63.4-1.23.81-2.41,1.8-3.53,2.98h-.01c-.61-.56-1.23-1.1-1.85-1.59-.63-.48-1.28-.92-1.93-1.33-.33-.19-.66-.39-.98-.57-.99-.53-2.01-.98-3.05-1.35-.35-.12-.71-.24-1.05-.35-.39-.11-.78-.22-1.18-.31-.33-.08-.67-.15-1-.22-.25-.05-.49-.09-.74-.12-.16-.03-.34-.06-.51-.08-.06-.02-.12-.03-.18-.03-.28-.04-.56-.07-.84-.1-.07-.01-.14-.02-.2-.02-.65-.07-1.3-.11-1.97-.13-.67-.03-1.35-.04-2.06-.03-2.57.04-5.84-.18-9.02-.13-.25,0-.49.01-.73.02-.3,0-.58.01-.87.03-.29.01-.56.03-.84.05-.13.01-.27.02-.41.03-.62.05-1.23.12-1.81.23-.19.02-.38.05-.56.09-.15.02-.32.05-.46.09-.15.03-.31.07-.45.1-.31.07-.6.15-.9.26-.07.02-.14.04-.2.07-.02,0-.04,0-.06.02-.2.06-.4.13-.59.22-.02,0-.03.01-.04.02-.01,0-.03,0-.04.02h-.02c-.43.18-.82.4-1.16.65-.34.24-.65.5-.9.8-.1.11-.19.22-.29.34-.08.1-.16.22-.24.33-.38.56-.66,1.18-.85,1.84-.66,2.11-.51,4.63-.45,6.85v.06c-.29-.82-.55-1.63-.8-2.41-.08-.26-.16-.5-.25-.75-.11-.34-.22-.67-.33-.99-.15-.44-.3-.86-.45-1.27-.09-.24-.18-.46-.28-.69-.07-.16-.14-.32-.22-.48-.11-.26-.23-.5-.35-.74-.01-.01-.01-.02-.02-.03-.1-.19-.22-.39-.32-.58-.09-.14-.17-.28-.27-.42-.13-.19-.27-.38-.41-.56-.14-.19-.31-.38-.48-.57-.11-.11-.23-.23-.34-.33-.12-.11-.25-.22-.37-.32-.23-.17-.46-.34-.71-.49-.1-.07-.22-.13-.33-.18-.18-.1-.38-.2-.58-.29-.23-.09-.47-.18-.72-.27-.33-.11-.67-.2-1.03-.28-.06-.01-.11-.02-.17-.03-.31-.06-.63-.11-.97-.14-.16-.02-.34-.03-.52-.04-.49-.03-1-.04-1.56-.03-.13,0-.27.01-.39.01-1.23.03-2.06-.03-2.52-1.26,0-.01-.01-.01-.01-.02-.15.22-.31.38-.47.52-.05.04-.11.08-.17.12-.05.03-.11.07-.17.1-.01.01-.02.01-.03.01-.04.03-.09.05-.13.08-.02,0-.05.01-.07.02-.24.1-.49.17-.8.27-.08.02-.15.04-.24.07-.07.02-.16.04-.25.07v-.02c-15.71-.77-10.23,10.4-14.95,10.82h.06s.01.01.01.01l1.04.19c.12.38-6.89,19.36-7.41,21.38-.9,3.52-1.61,4.44-1.13,8.68,1.48,2.24,3.22,3.91,6,4.3,3.3.45,10.67.09,13.77-.71l.37-.09c1.24-1.3,2.58-2.88,3.81-4.1,1.28,1.93,3.21,4.54,5.71,4.73,8.37.63,17.49.29,25.84.13,7.55-.14,8.04-4.15,8.51-10.56,3.97-.09,5.95-.6,9.5-2.42.83,3.8,4.07,7.94,7.35,9.94,8.3,5.06,18.68,4.13,27.25.86,1.13.91,2.11,1.79,3.41,2.45l-.13.33c-2.29,5.52-13.46,17.78-4.54,21.91,2.36,1.1,4.71.02,7.07-.26,6.93.06,10.01,1.35,16.7-1.88.54-.26,1.08-.53,1.6-.81,1.97,2.12,2.96,3.18,5.73,4.34,7.03-2.18,6.55-7.35,11.88-12.53l.31-.3.18-.17c-1.95,4.39-5.21,8.97-1.05,13,7.3.29,8.65-.73,12.87-6.56,1.77,2.8,3.88,4.86,7.27,5.49,6.1,1.13,14.51-.65,20.06-3.06,1.71,1.99,2.6,2.98,5.38,3.43,1.21.29,5.51-.77,6.34-1.64,3.35-3.52,5.54-8.36,8.15-12.45,4.3-6.76,8.78-13.49,13.24-20.12,3.89-5.79.01-9.07-6.05-8.36ZM364.78,311.62c-2.64-.15-5.52-.39-8.15-.31,3.42-3.99,6.68-7.17,10.57-10.66,1.64-1.4,3.13-2.56,4.86-3.86-.8,1.61-1.62,3.22-2.45,4.81-1.55,3.37-3.16,6.71-4.83,10.01ZM333.21,320.47c-1.24.54-2.54.96-3.87,1.24-1.5.31-5,.67-5.4-1.38.41-.49.48-.55.77-1.12l-.35-.43c-1.11-.22-2.26.13-3.4.35,1.48-2.31,2.64-4.21,3.98-6.62h.01c2.64,1.98,7.99-2.2,13.53,2.98-1.5,2.55-2.85,3.53-5.27,4.98ZM339.63,302.62c-1.83,1.81-6.32,3.99-8.77,4.87-1.16.42-2.52.84-3.7,1.23.95-1.21,1.8-2.46,2.67-3.73.98-2.25,3.9-4.95,3.44-7.25l-.02-.34.86-.95c4.31-.38,11.83-.1,5.51,6.16Z"/>
    <path class="st14" d="M299.4,267.7c7.6-.72,16.78,2.58,17.56,11.43,1.06,12.09.53,21.08-13.79,22.69-8.16.59-17.2-2.31-17.9-11.93-.86-11.89.12-20.92,14.13-22.19h0Z"/>
    <path class="st9" d="M300,277.07c5.66-.23,4.75,4.38,4.78,8.51.02,2.61.13,5.48-2.38,6.83-5.25.42-4.87-3.72-4.85-7.76.01-2.79-.32-6.18,2.45-7.58h0Z"/>
    <path class="st14" d="M223.58,268.14c4.4-.22,8.81-.2,13.2.02,1.81,3.98,4.19,11.45,5.72,15.82,1.7,4.84,4.66,12.61,5.74,17.33-2.34.07-9.64.51-11.35-.32-.81-.94-.97-1.91-1.34-3.11l-.25-.59c-1.36-.41-8.52-.24-10.3-.23-.56,1.75-.89,2.62-1.67,4.29-2.52.13-8.5.67-10.65-.24-.27-.11-.31-.11-.36-.38-.25-1.27,9.83-29.99,11.25-32.57v-.02Z"/>
    <path class="st3" d="M229.88,279.5c.86.81,2.5,6.63,2.69,7.95-.59.41-1.7.33-2.49.34l-2.53.02c.63-2.58,1.61-5.67,2.32-8.31h0Z"/>
    <path class="st14" d="M251.77,268.17c8.68-.58,28.13-2.43,29.73,9.14,1.15,8.29-3.12,12.22-10.85,13.52-2.2.17-4.3.23-6.5.3,0,3.38.02,6.73-.23,10.1-3.88.34-8.25.22-12.15.09-.34-5.16-.09-12.28-.14-17.59-.04-4.23-.19-11.59.15-15.54h0Z"/>
    <path class="st3" d="M263.92,276.95c3.97.02,6.28-.05,4.83,4.69-1.64.8-3.04.58-4.87.53,0-1.73.02-3.49.04-5.22h0Z"/>
    <path class="st14" d="M341.9,293.15c-4.64-2.2-13.26-.41-17.64,1.6-2.28,1.04-8.34,4.59-6.43,7.9.8,1.41,2.87,1.34,4.14.46.34-2.5.58-2.51,2.8-3.66.86-.01,2.1-.39,2.71-.2h0c.33.86.11,1.04-.24,2.09h0c-.04.11-.08.2-.12.31-2.01,4.7-14.58,19.9-13.04,24.15.2.56.47.61.97.83,2.52-.2,3.31-2.15,4.07-4.28,4.27,6.31,13.45,3.93,18.78.28,2.72-1.85,3.43-3.34,4.78-6.23.15-.46.26-.75.45-1.2l.69.07h.02c-.38-.77-.36-1.03-.46-1.87h-.01s-.08-.04-.12-.05c-.12-.04-.22-.07-.31-.09-.15-.04-.27-.04-.42-.03-.14.01-.32.02-.59.03h0c-1.57-1.75-2.48-2.16-4.53-3.15l.31-1.39c5.85-2.92,14.96-10.43,4.2-15.54ZM329.84,304.99c.98-2.25,3.9-4.95,3.44-7.25l-.02-.34.86-.95c4.31-.38,11.83-.1,5.51,6.16-1.83,1.81-6.32,3.99-8.77,4.87-1.16.42-2.52.84-3.7,1.23.95-1.21,1.8-2.46,2.67-3.73ZM338.48,315.49c-1.5,2.55-2.85,3.53-5.27,4.98-1.24.54-2.54.96-3.87,1.24-1.5.31-5,.67-5.4-1.38.41-.49.48-.55.77-1.12l-.35-.43c-1.11-.22-2.26.13-3.4.35,1.48-2.31,2.64-4.21,3.98-6.62h.01c2.64,1.98,7.99-2.2,13.53,2.98Z"/>
    <path class="st4" d="M333.25,297.42l.02.34-2.02.31c-2.08.34-2.77,1.73-4.01,3.27.35-1.04.56-1.23.24-2.08-.61-.18-1.85.19-2.71.2h0c2.9-1.91,6-2.57,9.36-3l-.86.95h-.01Z"/>
    <path class="st3" d="M341.92,313.24c.78-.02.78-.11,1.44.14.1.84.08,1.11.46,1.87l-.71-.07c-.19.45-.3.74-.45,1.2-.2-1.04-.49-2.12-.75-3.15h0Z"/>
    <path class="st4" d="M337.39,310.08c-.87-.04-.92.07-1.63-.34.55-.66,1.06-.71,1.94-1.05l-.31,1.39h0Z"/>
    <path class="st14" d="M368.66,294.9h-.02c-3.12-.4-5.95,3.35-7.63,5.6l-.05.79c-3.23,3.21-6.37,6.5-9.4,9.9-3.41.12-5.71-.24-8.19,2.18h0s-.01.01-.01.01c.1.83.08,1.1.46,1.87h.02c1.53-.41,3.21-.33,4.8-.35-1.66,1.9-9.37,10.7-3.88,11.95,1.3-.44,7.22-9.75,8.79-11.85,2.96.18,6.51.29,9.48.31-1.83,4.08-3.85,8.15-5.72,12.24l3.68-.39c3.48-2.25,7.83-13.69,9.78-17.75,1.22-2.53,6.37-13.45,6.41-15.86-1.96-3.1-6.19-.01-8.51,1.34ZM369.61,301.6c-1.55,3.37-3.16,6.71-4.83,10.01-2.64-.15-5.52-.39-8.15-.31,3.42-3.99,6.68-7.17,10.57-10.66,1.64-1.4,3.13-2.56,4.86-3.86-.8,1.61-1.62,3.22-2.45,4.81Z"/>
    <path class="st3" d="M360.98,301.3l.05-.79c1.68-2.25,4.51-6,7.63-5.61-2.91,2.12-5.01,3.98-7.68,6.4Z"/>
    <path class="st14" d="M376.33,326.39c-2.17-1.12-3.43-1.44-4-4,.32-1.39,1.04-2.82,2.56-3.09,1.31,1.48,1.53,1.99,3.55,2.55,3.96,1.11,16.3-1.95,17.09-6.15-1.69-3.13-16.9-3.28-17.73-9.33-.5-3.86,4.25-7.81,7.49-9.52,5.75-3.04,15.46-6.6,21.79-3.42,1.13.71,1.54,2.25.46,3.23-2.15,1.95-6.06,1.69-8.77,1.71.44-.94.62-.92.5-1.77-2.7-1.09-11.95,3.95-14.33,5.72-1.16.86-1.85,1.32-1.79,2.8,1.48,2.51,9.13,3.49,12.34,5.16,7.52,3.93,5.38,9.09-.78,12.88-2.16,1.33-5.28,2.21-7.84,2.97-2.07,1.91-8.77,2.04-10.56.29h.01Z"/>
    <path class="st3" d="M376.33,326.39c3.83.58,6.78.19,10.56-.29-2.07,1.91-8.77,2.04-10.56.29Z"/>
    <path class="st14" d="M422.35,292.18c1.3-.06,2.95.05,4.28.1-3.58,5.98-8.18,12.1-11.9,18.17-2.9,4.73-6.14,9.59-9.1,14.32-.43.68-.91,1.05-1.61,1.42-1.14.32-2.32.66-3.42.17l-.19-.54c.66-4.27,18.47-30.87,21.93-33.63h.01Z"/>
    <path class="st1" d="M374.84,310.43c1.63,1.06,2.65,2.9,4.89,3.79,1.67.67,5.38,1.7,6.57,2.78-.55.53-1.37.58-2.22.79-2.06-.01-2.78.52-4.6-.71-2.86-1.93-3.68-2.03-7.01-1.79.94-1.5,1.65-3.23,2.37-4.84h0Z"/>
    <path class="st11" d="M138.57,221.9l.22.44h-.01c-.51.17-.7.23-1.22.33l-19.15-.16h-.01c-.9-.07-1.85-.11-2.83-.14-1.87-.06-3.84-.06-5.72-.07-.96,0-1.9,0-2.81-.01-.08-.05-.16-.1-.26-.14,0,0-.01.01-.01,0-.09-.04-.18-.08-.28-.11-.1-.04-.2-.07-.31-.11-.1-.03-.2-.06-.31-.08h-.02c-.1-.03-.2-.06-.3-.09-.1-.02-.2-.05-.31-.07-.22-.04-.42-.09-.61-.14,9.36-.41,21.3-.57,30.66-.49h.01s.05.01.08.01c.03.01.07.01.1.02h.01c.06.01.11.02.17.03.65.1,1.13.17,1.65.32t.01,0c.11.04.24.08.37.12.02.01.05.02.07.03.06.02.12.05.19.07.04.02.09.04.13.06.07.03.15.06.23.09.07.03.14.06.23.1h.01Z"/>
    <polygon class="st11" points="140.58 216.91 140.58 216.92 137.5 216.89 127.34 216.72 127.34 216.71 137.48 216.88 137.51 216.88 140.58 216.91"/>
    <path class="st7" d="M138.77,222.34c-.51.17-.7.23-1.22.33l-19.15-.16h-.01c-.9-.07-1.85-.11-2.83-.14-1.87-.06-3.84-.06-5.72-.07-.96,0-1.9,0-2.81-.01h-.01c-.08-.05-.16-.09-.25-.14,0,0-.01.01-.01,0t-.01,0c-.09-.04-.17-.08-.27-.11-.1-.04-.2-.07-.31-.11h-.02c-.09-.03-.19-.05-.29-.08h-.02c-.1-.03-.2-.06-.3-.09-.1-.02-.2-.04-.31-.07-.22-.04-.42-.09-.61-.14,9.36-.41,21.3-.57,30.66-.49h.01s.05.01.08.01c.03.01.07.01.1.02h.01c.06.01.11.02.17.03.65.1,1.13.17,1.65.32t.01,0c.11.04.24.08.37.12.02.01.05.02.07.03.06.02.12.05.19.07.04.02.09.04.13.06.07.03.15.06.23.09.07.03.14.06.23.1h.01s.2.45.2.45Z"/>
    <path class="st11" d="M137.74,238.71h.01v.02h-.02s.01-.01.01-.02Z"/>
    <path class="st11" d="M139.06,232.73c-.02.53-.07,1.11-.04,1.64-9.51-.03-19.03-.15-28.53-.36-4.9.19-12.27-.2-17.36-.32h-.02c-1.06-.09-2.16-.09-3.24-.11h-.02l.19-.52h.02c2.87-.03,12.05-.33,14.61-.02,11.26-.11,23.17,0,34.38-.31Z"/>
    <path class="st5" d="M139.06,232.73c-.02.53-.07,1.11-.04,1.64-9.51-.03-19.03-.15-28.53-.36-.18-.06-.38-.1-.58-.13-.41-.07-.86-.11-1.34-.14-.24-.01-.48-.02-.74-.03-.5-.02-1.02-.04-1.56-.09-.52-.04-1.05-.1-1.57-.22l-.02-.36c11.26-.11,23.17,0,34.38-.31Z"/>
    <path class="st10" d="M110.49,234.01c-4.9.19-12.27-.2-17.36-.32h-.02c-1.06-.09-2.16-.09-3.24-.11l.19-.52c2.87-.03,12.05-.33,14.61-.02l.02.36c.51.11,1.04.17,1.57.22.53.05,1.05.07,1.56.09.26.01.5.02.74.03.48.03.94.06,1.34.14.2.03.4.07.58.13Z"/>
    <path class="st15" d="M126.04,226.67c4.31-.05,8.62-.06,12.93-.03l-.27.39c.17.69.24,1.06.6,1.69l-10.22-.07c-12.15.38-25.52-.19-37.8-.24-2.24-.79-4.21-.59-6.59-.77,2.47-.06,4.73.02,7.11-.65l.38-.11c3.22.1,7.03-.13,10.3-.14,7.78-.01,15.79-.3,23.55-.08h0Z"/>
    <path class="st0" d="M126.04,226.67c4.31-.05,8.62-.06,12.93-.03l-.27.39c.17.69.24,1.06.6,1.69l-10.22-.07c-1.72-.28-6.92-.33-8.89-.39,2.36-.38,5-.05,7.34-.1l-.08-.5c-.18-.15-.36-.31-.54-.46-2.21.03-5.23.01-7.35-.1,2.16-.09,4.31-.23,6.46-.43h.01Z"/>
    <path class="st8" d="M139.13,239.45c-.14.18-.4.32-.73.43-.1.03-.2.06-.32.08-.11.03-.24.05-.35.07h-.03c-.08.02-.17.03-.27.04-.15.02-.32.04-.49.05-.02,0-.04,0-.06.01h-.1c-1.57.1-3.46-.04-4.39-.06h-.1c-5.82-.09-11.63-.15-17.46-.16h-.01c-2.13.17-6.28.03-8.6.01-.02,0-.04-.01-.06-.02-.19-.07-4.03-.33-5.16-.49h-.01s-.06-.01-.09-.01c2.11-.18,5.12-.37,7.2-.17,5.82-.05,11.63-.12,17.45-.24,3.82-.05,8.44,0,12.2-.28h.01v.02s1.27-.02,1.27-.02h.01l.1.74Z"/>
    <path class="st5" d="M139.13,239.45c-.14.18-.4.32-.73.43-.1.03-.2.06-.32.08-.11.03-.24.05-.35.07h-.03c-.08.02-.17.03-.27.04-.15.02-.32.04-.49.05-.02,0-.04,0-.06.01h-.1c-1.57.1-3.46-.04-4.39-.06h-.1c-5.82-.09-11.63-.15-17.46-.16h-.01c-.14-.03-.31-.05-.49-.06-.2-.03-.43-.04-.68-.06-.3-.01-.61-.03-.94-.04-.33-.02-.67-.03-1.01-.04-.22-.01-.44-.02-.67-.03-.15-.01-.3-.02-.43-.02-.29-.02-.56-.04-.82-.06-.07,0-.14-.01-.2-.02-.18-.02-.36-.04-.52-.06-.19-.03-.38-.06-.53-.1-.08-.02-.15-.04-.22-.07-.08-.03-.15-.06-.22-.09,5.82-.05,11.62-.12,17.44-.24,3.82-.05,8.44,0,12.2-.28h.01l1.28-.02h.01l.1.74Z"/>
    <path class="st6" d="M114.82,239.91c-2.13.17-6.28.03-8.6.01h-.06c-.2-.07-4.29-.35-5.26-.5.03,0,.06-.01.09-.01h.01c2.1-.18,5.05-.36,7.1-.16.06.03.13.06.22.09.06.03.13.05.22.07.15.04.34.07.53.1.16.03.34.05.52.06.06.01.13.02.2.02.27.03.54.04.82.06.14.01.29.02.43.02.23.01.45.02.67.03.34.01.69.03,1.01.04s.65.03.94.04c.25.02.47.04.68.06.18.01.35.03.49.06Z"/>
    <path class="st5" d="M141.05,215.07c-.09.38-.35,1.52-.45,1.84h-.01s-3.08-.02-3.08-.02l-10.16-.16h-.03c-6.66-.13-13.35-.44-20-.53h-.01s-.67-.62-.67-.62h.03c8.62.04,17.31-.26,25.92-.17,1.36-.04,2.71-.09,4.08-.13.11,0,.22-.01.33-.02,1.35-.05,2.7-.11,4.06-.17Z"/>
    <path class="st0" d="M141.05,215.07c-.09.38-.35,1.52-.45,1.84h-.01s-3.08-.02-3.08-.02h-.02s-.57-.39-.57-.39l.61-.44c-1.65-.19-3.3-.41-4.95-.66,1.36-.04,2.72-.09,4.09-.14.11,0,.22-.01.33-.02,1.35-.04,2.69-.1,4.04-.16h.01Z"/>
    <path class="st7" d="M120.63,198.26c8.63-.16,17.26-.38,25.9-.66-.36.62-.54,1.13-1.06,1.6-5.48.26-14.34-.15-20-.25-1.66.08-3.92,0-5.63,0-.7-.11-1.37-.18-2.07-.27l-.28-.43c.88,0,2.3-.07,3.13,0h.01Z"/>
    <path class="st13" d="M117.49,198.26c.88,0,2.3-.07,3.13,0,1.04.6,3.35.42,4.83.7-1.66.08-3.92,0-5.63,0-.7-.11-1.37-.18-2.07-.27l-.28-.43h.01Z"/>
    <path class="st13" d="M139.24,244.57l-.1,1.39c-7.01-.36-14.91.13-21.99.05-3.9-.04-7.84-.24-11.75-.4,2.82-.34,5.75-.06,8.55-.29,7.94-.63,16.47-.1,24.32-.82h.02l.93.06h.01Z"/>
    <path class="st13" d="M119.36,204.42c7.52.02,16.64-.7,24.48-.82-.26.71-.31.7-.38,1.42-4.26-.25-9.71-.09-14.05-.09-3.05.46-12.37.18-15.39-.27,1.35-.38,3.91-.31,5.34-.23v-.02Z"/>
    <path class="st6" d="M129.41,204.92c-3.05.46-12.37.18-15.39-.27,1.35-.38,3.91-.31,5.34-.23,1.41.8,7.88.33,10.06.5h0Z"/>
    <path class="st2" d="M120.2,209.5c2.24-.02,5.47-.14,7.64,0-.75.22-1.48.43-2.23.63l-.05.3c.46.22,1.08.35,1.34.57-1.48.16-5.85.03-7.56.02-3.88.07-10.7-.14-14.42-.79.97-.6,13.39-.76,15.28-.74h0Z"/>
    <path class="st10" d="M120.2,209.5c2.24-.02,5.47-.14,7.64,0-.75.22-1.48.43-2.23.63l-.05.3c.46.22,1.08.35,1.34.57-1.48.16-5.85.03-7.56.02-.54-.2-.37-.11-.84-.5.89.15,1.13.23,2.04.14l.18-.37c-.47-.48-.96-.32-1.86-.37l1.35-.43h-.01Z"/>
    <path class="st2" d="M91.3,228.42c-2.96.2-21.57-.14-23.95-.7,3.44-.74,20.58-.97,24.84-.82l-.38.11c-2.37.67-4.64.58-7.11.65,2.39.17,4.35-.02,6.59.77h0Z"/>
    <path class="st6" d="M118.39,222.5c-3.65.3-9.74.02-13.69.05-9.41.08-18.91-.06-28.3-.45,3.03-.37,5.39-.35,8.44-.4h.01c.5.02,1.68.03,2.12.1h.02c5.73-.04,11.94-.47,17.63-.29h.02c.19.05.4.1.61.14.1.03.2.05.31.07.1.03.19.06.3.09h.02c.09.03.19.05.29.08.2.07.4.14.59.23t.01,0c.08.05.17.09.26.14h.01c.9.01,1.84.01,2.81.01,1.89,0,3.85.01,5.72.07.97.03,1.93.07,2.83.14Z"/>
    <path class="st13" d="M107.03,222.27c-2.61.09-18.58.28-20.04-.47,5.73-.04,11.94-.47,17.63-.29h.02c.19.05.4.1.61.14.1.03.2.05.31.07.1.03.19.06.3.09h.02c.09.03.19.05.29.08.2.07.4.14.59.23t.01,0c.08.05.17.09.26.14Z"/>
    <path class="st13" d="M127.83,209.5c2.82-.09,10.32-.35,12.88.02.44.76.58,1.18,1.22,1.74-3.88-.39-10.86-.2-15.04-.26-.28-.22-.89-.36-1.34-.57l.05-.3c.75-.2,1.5-.42,2.23-.63h0Z"/>
    <path class="st13" d="M116.31,250.39c1.79.15,6.9,0,8.93-.02,4.21-.05,9.84.18,13.94-.18-.22.73-.16.73-.06,1.5-7.1-.16-14.86-.69-21.75-.75l-1.05-.52v-.02Z"/>
    <path class="st15" d="M138.5,192.11c2.89-.03,11.15-.33,13.49-.09-.32.39-.71,1-1.11,1.2-3.86.08-8.51-.22-12.38-.39-.16-.37-.09-.2,0-.71h0Z"/>
    <path class="st6" d="M107.33,216.18c-2.95.1-6.86-.04-9.8-.18l-.07-.18-.58.08c1.82-.35,7.75-.36,9.78-.35l.68.62h0Z"/>
    <path class="st6" d="M110.42,198.41c2.33-.1,4.75-.26,7.08-.14l.28.43c.7.08,1.37.16,2.07.27-1.95.08-7.82.11-9.42-.55Z"/>
    <path class="st6" d="M138.5,192.81c-1.44.04-4.56-.1-5.93-.44,1.7-.4,4.18-.33,5.93-.27-.09.51-.16.35,0,.71h0Z"/>
    <path class="st12" d="M89.88,233.58c-1.15,0-4.55.05-5.52-.38,2.21-.17,3.5-.22,5.71-.14l-.19.52Z"/>
    <path class="st12" d="M117.35,250.93c-1.8.04-2.91.11-4.69-.17h.12l.16-.33c1.02-.07,2.3-.02,3.35-.02l1.05.52h0Z"/>
  </g>
</svg>